{
    "asset" : {
        "generator" : "Khronos glTF Blender I/O v1.8.19",
        "version" : "2.0"
    },
    "scene" : 0,
    "scenes" : [
        {
            "name" : "Scene",
            "nodes" : [
                0
            ]
        }
    ],
    "nodes" : [
        {
            "mesh" : 0,
            "name" : "\u6ce2\u97f3_727"
        }
    ],
    "materials" : [
        {
            "doubleSided" : true,
            "name" : "ArchM73_757_Glass",
            "pbrMetallicRoughness" : {
                "baseColorFactor" : [
                    0.5,
                    0.5,
                    0.5,
                    1
                ],
                "metallicFactor" : 0,
                "roughnessFactor" : 0.5
            }
        },
        {
            "doubleSided" : true,
            "name" : "ArchM73_757_Light_black",
            "pbrMetallicRoughness" : {
                "baseColorTexture" : {
                    "index" : 0
                },
                "metallicFactor" : 0,
                "roughnessFactor" : 0.5
            }
        },
        {
            "doubleSided" : true,
            "name" : "ArchM73_757",
            "pbrMetallicRoughness" : {
                "baseColorFactor" : [
                    0,
                    0.01960800029337406,
                    0.01960800029337406,
                    1
                ],
                "metallicFactor" : 0,
                "roughnessFactor" : 0.5
            }
        },
        {
            "doubleSided" : true,
            "name" : "ArchM73_757_Light_Hrom",
            "pbrMetallicRoughness" : {
                "baseColorFactor" : [
                    0.5,
                    0.5,
                    0.5,
                    1
                ],
                "metallicFactor" : 0,
                "roughnessFactor" : 0.5
            }
        },
        {
            "doubleSided" : true,
            "name" : "ArchM73_05_blach hrom",
            "pbrMetallicRoughness" : {
                "baseColorTexture" : {
                    "index" : 1
                },
                "metallicFactor" : 0,
                "roughnessFactor" : 0.5
            }
        },
        {
            "doubleSided" : true,
            "name" : "ArchM73_04_tyre",
            "pbrMetallicRoughness" : {
                "baseColorFactor" : [
                    0.09803900122642517,
                    0.10196100175380707,
                    0.10588199645280838,
                    1
                ],
                "metallicFactor" : 0,
                "roughnessFactor" : 0.5
            }
        },
        {
            "doubleSided" : true,
            "name" : "ArchM73_04_diff.001",
            "normalTexture" : {
                "index" : 2
            },
            "pbrMetallicRoughness" : {
                "baseColorTexture" : {
                    "index" : 3
                },
                "metallicFactor" : 0.4000000059604645,
                "roughnessFactor" : 0.5
            }
        },
        {
            "doubleSided" : true,
            "name" : "ArchM73_04_exter",
            "pbrMetallicRoughness" : {
                "baseColorFactor" : [
                    0.9294120073318481,
                    0.9529410004615784,
                    1,
                    1
                ],
                "metallicFactor" : 0,
                "roughnessFactor" : 0.5
            }
        }
    ],
    "meshes" : [
        {
            "name" : "Obj3d66-4671451-37-795",
            "primitives" : [
                {
                    "attributes" : {
                        "POSITION" : 0,
                        "NORMAL" : 1,
                        "TEXCOORD_0" : 2
                    },
                    "indices" : 3,
                    "material" : 0
                },
                {
                    "attributes" : {
                        "POSITION" : 4,
                        "NORMAL" : 5,
                        "TEXCOORD_0" : 6
                    },
                    "indices" : 7,
                    "material" : 1
                },
                {
                    "attributes" : {
                        "POSITION" : 8,
                        "NORMAL" : 9,
                        "TEXCOORD_0" : 10
                    },
                    "indices" : 11,
                    "material" : 2
                },
                {
                    "attributes" : {
                        "POSITION" : 12,
                        "NORMAL" : 13,
                        "TEXCOORD_0" : 14
                    },
                    "indices" : 15,
                    "material" : 3
                },
                {
                    "attributes" : {
                        "POSITION" : 16,
                        "NORMAL" : 17,
                        "TEXCOORD_0" : 18
                    },
                    "indices" : 19,
                    "material" : 4
                },
                {
                    "attributes" : {
                        "POSITION" : 20,
                        "NORMAL" : 21,
                        "TEXCOORD_0" : 22
                    },
                    "indices" : 23,
                    "material" : 5
                },
                {
                    "attributes" : {
                        "POSITION" : 24,
                        "NORMAL" : 25,
                        "TEXCOORD_0" : 26
                    },
                    "indices" : 27,
                    "material" : 6
                },
                {
                    "attributes" : {
                        "POSITION" : 28,
                        "NORMAL" : 29,
                        "TEXCOORD_0" : 30
                    },
                    "indices" : 31,
                    "material" : 7
                }
            ]
        }
    ],
    "textures" : [
        {
            "sampler" : 0,
            "source" : 0
        },
        {
            "sampler" : 0,
            "source" : 1
        },
        {
            "sampler" : 0,
            "source" : 2
        },
        {
            "sampler" : 0,
            "source" : 3
        }
    ],
    "images" : [
        {
            "bufferView" : 8,
            "mimeType" : "image/jpeg",
            "name" : "Image_0"
        },
        {
            "bufferView" : 21,
            "mimeType" : "image/png",
            "name" : "Image_1.002"
        },
        {
            "bufferView" : 30,
            "mimeType" : "image/png",
            "name" : "Image_1"
        },
        {
            "bufferView" : 31,
            "mimeType" : "image/jpeg",
            "name" : "Image_0.022"
        }
    ],
    "accessors" : [
        {
            "bufferView" : 0,
            "componentType" : 5126,
            "count" : 424,
            "max" : [
                -11.859931945800781,
                2.9832310676574707,
                0.8687525987625122
            ],
            "min" : [
                -14.157754898071289,
                1.0353484153747559,
                -0.8687454462051392
            ],
            "type" : "VEC3"
        },
        {
            "bufferView" : 1,
            "componentType" : 5126,
            "count" : 424,
            "type" : "VEC3"
        },
        {
            "bufferView" : 2,
            "componentType" : 5126,
            "count" : 424,
            "type" : "VEC2"
        },
        {
            "bufferView" : 3,
            "componentType" : 5123,
            "count" : 1248,
            "type" : "SCALAR"
        },
        {
            "bufferView" : 4,
            "componentType" : 5126,
            "count" : 705,
            "max" : [
                3.3860747814178467,
                5.211980819702148,
                2.457808494567871
            ],
            "min" : [
                3.179344654083252,
                2.5127882957458496,
                -2.4578065872192383
            ],
            "type" : "VEC3"
        },
        {
            "bufferView" : 5,
            "componentType" : 5126,
            "count" : 705,
            "type" : "VEC3"
        },
        {
            "bufferView" : 6,
            "componentType" : 5126,
            "count" : 705,
            "type" : "VEC2"
        },
        {
            "bufferView" : 7,
            "componentType" : 5123,
            "count" : 2886,
            "type" : "SCALAR"
        },
        {
            "bufferView" : 9,
            "componentType" : 5126,
            "count" : 78,
            "max" : [
                0.6449089050292969,
                0.682964563369751,
                2.2015233039855957
            ],
            "min" : [
                -11.715730667114258,
                0.39852577447891235,
                -2.2016196250915527
            ],
            "type" : "VEC3"
        },
        {
            "bufferView" : 10,
            "componentType" : 5126,
            "count" : 78,
            "type" : "VEC3"
        },
        {
            "bufferView" : 11,
            "componentType" : 5126,
            "count" : 78,
            "type" : "VEC2"
        },
        {
            "bufferView" : 12,
            "componentType" : 5123,
            "count" : 228,
            "type" : "SCALAR"
        },
        {
            "bufferView" : 13,
            "componentType" : 5126,
            "count" : 490,
            "max" : [
                -11.842497825622559,
                1.1230592727661133,
                0.09443967044353485
            ],
            "min" : [
                -11.860828399658203,
                1.0353924036026,
                -0.09647427499294281
            ],
            "type" : "VEC3"
        },
        {
            "bufferView" : 14,
            "componentType" : 5126,
            "count" : 490,
            "type" : "VEC3"
        },
        {
            "bufferView" : 15,
            "componentType" : 5126,
            "count" : 490,
            "type" : "VEC2"
        },
        {
            "bufferView" : 16,
            "componentType" : 5123,
            "count" : 504,
            "type" : "SCALAR"
        },
        {
            "bufferView" : 17,
            "componentType" : 5126,
            "count" : 2322,
            "max" : [
                11.222429275512695,
                5.16801643371582,
                2.407374382019043
            ],
            "min" : [
                3.212012767791748,
                2.3663506507873535,
                -2.407285213470459
            ],
            "type" : "VEC3"
        },
        {
            "bufferView" : 18,
            "componentType" : 5126,
            "count" : 2322,
            "type" : "VEC3"
        },
        {
            "bufferView" : 19,
            "componentType" : 5126,
            "count" : 2322,
            "type" : "VEC2"
        },
        {
            "bufferView" : 20,
            "componentType" : 5123,
            "count" : 7986,
            "type" : "SCALAR"
        },
        {
            "bufferView" : 22,
            "componentType" : 5126,
            "count" : 3642,
            "max" : [
                0.9722480773925781,
                0.7991057634353638,
                2.6105587482452393
            ],
            "min" : [
                -11.964265823364258,
                -1.1920928955078125e-07,
                -2.6104772090911865
            ],
            "type" : "VEC3"
        },
        {
            "bufferView" : 23,
            "componentType" : 5126,
            "count" : 3642,
            "type" : "VEC3"
        },
        {
            "bufferView" : 24,
            "componentType" : 5126,
            "count" : 3642,
            "type" : "VEC2"
        },
        {
            "bufferView" : 25,
            "componentType" : 5123,
            "count" : 20736,
            "type" : "SCALAR"
        },
        {
            "bufferView" : 26,
            "componentType" : 5126,
            "count" : 16472,
            "max" : [
                15.178178787231445,
                7.554250717163086,
                12.18784236907959
            ],
            "min" : [
                -15.178186416625977,
                0.6132177710533142,
                -12.187300682067871
            ],
            "type" : "VEC3"
        },
        {
            "bufferView" : 27,
            "componentType" : 5126,
            "count" : 16472,
            "type" : "VEC3"
        },
        {
            "bufferView" : 28,
            "componentType" : 5126,
            "count" : 16472,
            "type" : "VEC2"
        },
        {
            "bufferView" : 29,
            "componentType" : 5123,
            "count" : 59274,
            "type" : "SCALAR"
        },
        {
            "bufferView" : 32,
            "componentType" : 5126,
            "count" : 27674,
            "max" : [
                0.7868595123291016,
                1.6463333368301392,
                2.6084625720977783
            ],
            "min" : [
                -11.860828399658203,
                0.16795194149017334,
                -2.6087186336517334
            ],
            "type" : "VEC3"
        },
        {
            "bufferView" : 33,
            "componentType" : 5126,
            "count" : 27674,
            "type" : "VEC3"
        },
        {
            "bufferView" : 34,
            "componentType" : 5126,
            "count" : 27674,
            "type" : "VEC2"
        },
        {
            "bufferView" : 35,
            "componentType" : 5123,
            "count" : 59580,
            "type" : "SCALAR"
        }
    ],
    "bufferViews" : [
        {
            "buffer" : 0,
            "byteLength" : 5088,
            "byteOffset" : 0
        },
        {
            "buffer" : 0,
            "byteLength" : 5088,
            "byteOffset" : 5088
        },
        {
            "buffer" : 0,
            "byteLength" : 3392,
            "byteOffset" : 10176
        },
        {
            "buffer" : 0,
            "byteLength" : 2496,
            "byteOffset" : 13568
        },
        {
            "buffer" : 0,
            "byteLength" : 8460,
            "byteOffset" : 16064
        },
        {
            "buffer" : 0,
            "byteLength" : 8460,
            "byteOffset" : 24524
        },
        {
            "buffer" : 0,
            "byteLength" : 5640,
            "byteOffset" : 32984
        },
        {
            "buffer" : 0,
            "byteLength" : 5772,
            "byteOffset" : 38624
        },
        {
            "buffer" : 0,
            "byteLength" : 73719,
            "byteOffset" : 44396
        },
        {
            "buffer" : 0,
            "byteLength" : 936,
            "byteOffset" : 118116
        },
        {
            "buffer" : 0,
            "byteLength" : 936,
            "byteOffset" : 119052
        },
        {
            "buffer" : 0,
            "byteLength" : 624,
            "byteOffset" : 119988
        },
        {
            "buffer" : 0,
            "byteLength" : 456,
            "byteOffset" : 120612
        },
        {
            "buffer" : 0,
            "byteLength" : 5880,
            "byteOffset" : 121068
        },
        {
            "buffer" : 0,
            "byteLength" : 5880,
            "byteOffset" : 126948
        },
        {
            "buffer" : 0,
            "byteLength" : 3920,
            "byteOffset" : 132828
        },
        {
            "buffer" : 0,
            "byteLength" : 1008,
            "byteOffset" : 136748
        },
        {
            "buffer" : 0,
            "byteLength" : 27864,
            "byteOffset" : 137756
        },
        {
            "buffer" : 0,
            "byteLength" : 27864,
            "byteOffset" : 165620
        },
        {
            "buffer" : 0,
            "byteLength" : 18576,
            "byteOffset" : 193484
        },
        {
            "buffer" : 0,
            "byteLength" : 15972,
            "byteOffset" : 212060
        },
        {
            "buffer" : 0,
            "byteLength" : 100451,
            "byteOffset" : 228032
        },
        {
            "buffer" : 0,
            "byteLength" : 43704,
            "byteOffset" : 328484
        },
        {
            "buffer" : 0,
            "byteLength" : 43704,
            "byteOffset" : 372188
        },
        {
            "buffer" : 0,
            "byteLength" : 29136,
            "byteOffset" : 415892
        },
        {
            "buffer" : 0,
            "byteLength" : 41472,
            "byteOffset" : 445028
        },
        {
            "buffer" : 0,
            "byteLength" : 197664,
            "byteOffset" : 486500
        },
        {
            "buffer" : 0,
            "byteLength" : 197664,
            "byteOffset" : 684164
        },
        {
            "buffer" : 0,
            "byteLength" : 131776,
            "byteOffset" : 881828
        },
        {
            "buffer" : 0,
            "byteLength" : 118548,
            "byteOffset" : 1013604
        },
        {
            "buffer" : 0,
            "byteLength" : 100451,
            "byteOffset" : 1132152
        },
        {
            "buffer" : 0,
            "byteLength" : 73719,
            "byteOffset" : 1232604
        },
        {
            "buffer" : 0,
            "byteLength" : 332088,
            "byteOffset" : 1306324
        },
        {
            "buffer" : 0,
            "byteLength" : 332088,
            "byteOffset" : 1638412
        },
        {
            "buffer" : 0,
            "byteLength" : 221392,
            "byteOffset" : 1970500
        },
        {
            "buffer" : 0,
            "byteLength" : 119160,
            "byteOffset" : 2191892
        }
    ],
    "samplers" : [
        {
            "magFilter" : 9729,
            "minFilter" : 9987
        }
    ],
    "buffers" : [
        {
            "byteLength" : 2311052,
            "uri" : "data:application/octet-stream;base64,"
        }
    ]
}
